<svg xmlns="http://www.w3.org/2000/svg" xmlns:xlink="http://www.w3.org/1999/xlink" width="512" zoomAndPan="magnify" viewBox="0 0 384 383.999986" height="512" preserveAspectRatio="xMidYMid meet" version="1.0"><defs><g/><clipPath id="92cfdb836b"><rect x="0" width="324" y="0" height="152"/></clipPath></defs><rect x="-38.4" width="460.8" fill="#ffffff" y="-38.399999" height="460.799983" fill-opacity="1"/><rect x="-38.4" width="460.8" fill="#ffffff" y="-38.399999" height="460.799983" fill-opacity="1"/><g transform="matrix(1, 0, 0, 1, 30, 116)"><g clip-path="url(#92cfdb836b)"><g fill="#000000" fill-opacity="1"><g transform="translate(0.91702, 121.304184)"><g><path d="M 51.34375 -94.96875 C 84.5625 -94.96875 101.171875 -79.140625 101.171875 -47.484375 C 101.171875 -15.828125 84.5625 0 51.34375 0 L 10.21875 0 L 10.21875 -94.96875 Z M 40.71875 -22.78125 L 50.796875 -22.78125 C 63.585938 -22.78125 69.984375 -29.632812 69.984375 -43.34375 L 69.984375 -51.625 C 69.984375 -65.332031 63.585938 -72.1875 50.796875 -72.1875 L 40.71875 -72.1875 Z M 40.71875 -22.78125 "/></g></g></g><g fill="#000000" fill-opacity="1"><g transform="translate(108.304311, 121.304184)"><g><path d="M 55.484375 -96.625 C 69.566406 -96.625 80.703125 -93.101562 88.890625 -86.0625 C 97.078125 -79.019531 101.171875 -68.96875 101.171875 -55.90625 L 72.046875 -55.90625 C 72.046875 -61.425781 70.597656 -65.796875 67.703125 -69.015625 C 64.804688 -72.234375 60.6875 -73.84375 55.34375 -73.84375 C 49.1875 -73.84375 44.65625 -71.910156 41.75 -68.046875 C 38.851562 -64.179688 37.40625 -58.800781 37.40625 -51.90625 L 37.40625 -43.0625 C 37.40625 -36.25 38.851562 -30.890625 41.75 -26.984375 C 44.65625 -23.078125 49.097656 -21.125 55.078125 -21.125 C 60.960938 -21.125 65.421875 -22.640625 68.453125 -25.671875 C 71.492188 -28.710938 73.015625 -32.992188 73.015625 -38.515625 L 101.171875 -38.515625 C 101.171875 -25.535156 97.191406 -15.59375 89.234375 -8.6875 C 81.273438 -1.789062 70.023438 1.65625 55.484375 1.65625 C 39.285156 1.65625 27.023438 -2.484375 18.703125 -10.765625 C 10.378906 -19.046875 6.21875 -31.285156 6.21875 -47.484375 C 6.21875 -63.679688 10.378906 -75.921875 18.703125 -84.203125 C 27.023438 -92.484375 39.285156 -96.625 55.484375 -96.625 Z M 55.484375 -96.625 "/></g></g></g><g fill="#000000" fill-opacity="1"><g transform="translate(215.691602, 121.304184)"><g><path d="M 69.15625 0 L 38.65625 0 L 38.65625 -36.859375 L 0.96875 -94.96875 L 36.03125 -94.96875 L 54.25 -63.359375 L 54.796875 -63.359375 L 73.015625 -94.96875 L 106.28125 -94.96875 L 69.15625 -36.859375 Z M 69.15625 0 "/></g></g></g></g></g></svg>